<?xml version="1.0" standalone="no"?>
<!DOCTYPE svg PUBLIC "-//W3C//DTD SVG 20010904//EN"
 "http://www.w3.org/TR/2001/REC-SVG-20010904/DTD/svg10.dtd">
<svg version="1.0" xmlns="http://www.w3.org/2000/svg"
 width="1500.000000pt" height="1500.000000pt" viewBox="0 0 1500.000000 1500.000000"
 preserveAspectRatio="xMidYMid meet">

<g transform="translate(0.000000,1500.000000) scale(0.100000,-0.100000)"
fill="#000000" stroke="none">
<path d="M2233 8764 c-208 -45 -396 -170 -506 -336 -161 -244 -167 -578 -16
-835 50 -84 214 -244 379 -368 206 -156 311 -246 374 -321 138 -167 169 -336
86 -467 -105 -166 -370 -191 -597 -55 -76 45 -172 142 -268 271 -44 59 -81
103 -83 98 -6 -17 36 -223 58 -287 11 -32 35 -73 52 -91 37 -38 137 -82 270
-119 128 -35 345 -44 469 -20 358 73 563 319 560 676 0 130 -43 260 -122 377
-51 76 -180 204 -359 358 -204 175 -288 259 -350 352 -100 150 -130 314 -85
469 67 232 333 301 613 160 182 -92 340 -296 421 -542 l28 -88 37 119 c21 66
40 129 43 140 12 42 63 132 101 177 67 80 143 137 247 188 357 173 687 62 761
-256 17 -77 19 -239 4 -344 -44 -296 -201 -668 -423 -1000 -191 -287 -370
-481 -609 -661 -86 -65 -159 -123 -162 -128 -16 -25 173 48 331 127 182 92
426 250 603 390 125 100 359 336 435 439 91 125 161 247 204 358 120 305 93
605 -75 862 -112 169 -297 292 -532 350 -106 27 -334 24 -435 -5 -150 -43
-283 -126 -370 -230 -45 -54 -73 -103 -131 -235 -14 -33 -31 -57 -37 -55 -7 2
-29 45 -49 94 -56 138 -89 193 -160 265 -89 91 -213 150 -374 178 -81 15 -257
12 -333 -5z"/>
<path d="M9334 8445 c-168 -63 -204 -81 -204 -100 0 -19 35 -41 87 -54 37 -10
44 -16 52 -49 25 -93 39 -345 23 -427 l-4 -26 -97 7 c-410 28 -782 -300 -783
-691 -1 -162 46 -279 152 -379 81 -76 167 -121 277 -143 70 -15 93 -16 163 -5
99 14 148 35 228 97 34 27 64 46 66 44 4 -4 14 -82 15 -121 1 -28 53 -22 294
34 l88 20 -3 31 c-3 31 -5 32 -54 37 -91 9 -83 -74 -86 858 -3 889 -4 894 -54
913 -14 5 -63 -9 -160 -46z m-166 -761 c77 -22 110 -56 123 -129 12 -65 3
-699 -10 -723 -17 -31 -98 -105 -135 -124 -196 -100 -457 160 -473 473 -14
260 112 474 304 518 47 10 121 5 191 -15z"/>
<path d="M5812 8400 c-286 -75 -464 -311 -423 -561 16 -100 54 -173 125 -245
66 -66 139 -106 410 -224 308 -135 417 -234 417 -382 0 -123 -89 -257 -198
-298 -263 -98 -580 78 -690 381 -23 67 -43 65 -37 -3 2 -29 9 -122 14 -207 5
-85 13 -158 18 -163 18 -18 232 -87 319 -104 118 -22 299 -15 398 16 204 64
345 192 397 363 16 54 19 87 16 157 -6 123 -48 209 -150 306 -80 76 -156 120
-317 184 -303 120 -437 205 -482 305 -25 55 -25 175 0 230 25 56 110 129 179
156 119 45 285 21 408 -60 81 -53 122 -98 169 -188 22 -42 45 -78 51 -80 12
-4 7 347 -6 361 -5 4 -43 17 -87 27 -221 53 -402 63 -531 29z"/>
<path d="M10441 7780 c-371 -79 -586 -389 -517 -749 44 -236 206 -406 433
-457 89 -19 223 -15 325 11 215 56 375 223 424 441 24 110 16 273 -19 372 -63
181 -182 306 -345 363 -66 24 -231 34 -301 19z m174 -100 c146 -71 236 -274
236 -535 1 -190 -45 -335 -132 -425 -55 -57 -117 -83 -199 -83 -148 -1 -254
108 -312 322 -29 103 -31 344 -5 441 66 248 238 364 412 280z"/>
<path d="M11990 7783 c-37 -6 -96 -32 -178 -80 -40 -24 -74 -43 -77 -43 -2 0
-7 17 -10 38 -10 61 -22 82 -47 82 -29 0 -286 -86 -315 -106 -13 -8 -23 -21
-23 -29 0 -14 10 -18 68 -30 18 -4 37 -15 42 -25 6 -12 10 -187 10 -459 l0
-440 -22 -15 c-12 -9 -37 -19 -55 -22 -38 -7 -56 -25 -47 -48 5 -14 36 -16
270 -16 l264 0 0 25 c0 19 -7 26 -37 34 -21 6 -47 11 -58 11 -11 0 -31 7 -43
16 l-22 15 0 382 c0 353 1 385 19 417 27 50 62 73 125 78 49 4 62 0 145 -42
87 -44 93 -46 120 -32 37 20 63 76 63 138 -1 65 -27 107 -82 136 -43 21 -58
24 -110 15z"/>
<path d="M7034 7745 c-143 -38 -204 -63 -204 -85 0 -14 12 -21 55 -30 30 -6
57 -15 60 -19 16 -26 26 -184 28 -456 4 -341 8 -372 67 -454 59 -81 189 -141
306 -141 100 0 257 54 341 116 41 31 51 30 59 -3 18 -79 25 -102 37 -106 25
-8 351 73 372 94 15 15 -7 28 -65 36 -93 14 -90 -8 -90 576 l0 497 -63 0 c-42
0 -106 -12 -188 -35 -68 -19 -132 -35 -142 -35 -26 0 -18 -31 13 -47 14 -7 43
-21 65 -30 66 -30 69 -46 69 -438 1 -308 -1 -343 -17 -373 -54 -98 -287 -161
-392 -105 -32 16 -94 73 -127 115 -1 2 -5 215 -8 473 l-5 470 -40 2 c-22 1
-81 -8 -131 -22z"/>
<path d="M12835 7765 c-5 -2 -48 -15 -95 -30 -181 -58 -319 -145 -362 -229
-21 -41 -30 -149 -14 -175 12 -19 105 -13 142 10 33 20 68 81 94 164 20 64 48
113 71 126 95 50 188 10 245 -107 24 -48 27 -68 28 -157 2 -152 -1 -155 -260
-247 -165 -59 -236 -100 -280 -160 -100 -136 -56 -304 93 -360 113 -42 236
-19 359 67 30 21 63 44 74 51 17 12 21 10 38 -25 11 -21 31 -48 44 -60 33 -32
107 -63 149 -63 75 0 183 56 219 115 21 34 27 60 11 50 -25 -15 -112 -24 -141
-14 -52 19 -66 58 -61 174 2 55 5 208 5 340 1 277 -12 360 -67 442 -47 69 -99
93 -201 92 -45 0 -85 -2 -91 -4z m103 -797 l-3 -183 -57 -28 c-96 -48 -200
-36 -242 28 -46 70 -28 143 54 225 54 54 199 140 236 140 12 0 14 -31 12 -182z"/>
</g>
</svg>
